<mxfile host="app.diagrams.net" agent="Mozilla/5.0 (Windows NT 10.0; Win64; x64) AppleWebKit/537.36 (KHTML, like Gecko) Chrome/128.0.0.0 Safari/537.36 Edg/128.0.0.0" version="24.7.10">
  <diagram name="PÃ¡gina-1" id="parS8uF_OzrjPGljPjEX">
    <mxGraphModel dx="928" dy="615" grid="1" gridSize="10" guides="1" tooltips="1" connect="1" arrows="1" fold="1" page="1" pageScale="1" pageWidth="1169" pageHeight="827" math="0" shadow="0">
      <root>
        <mxCell id="0" />
        <mxCell id="1" parent="0" />
        <mxCell id="R6YDXP-DM-g-7m_YTFPq-2" style="edgeStyle=orthogonalEdgeStyle;rounded=0;orthogonalLoop=1;jettySize=auto;html=1;exitX=0.5;exitY=1;exitDx=0;exitDy=0;labelBackgroundColor=none;strokeColor=#457B9D;fontColor=default;" edge="1" parent="1" source="R6YDXP-DM-g-7m_YTFPq-1" target="R6YDXP-DM-g-7m_YTFPq-3">
          <mxGeometry relative="1" as="geometry">
            <mxPoint x="585" y="110" as="targetPoint" />
          </mxGeometry>
        </mxCell>
        <mxCell id="R6YDXP-DM-g-7m_YTFPq-1" value="SCR" style="ellipse;whiteSpace=wrap;html=1;align=center;labelBackgroundColor=none;fillColor=#A8DADC;strokeColor=#457B9D;fontColor=#1D3557;" vertex="1" parent="1">
          <mxGeometry x="525" y="30" width="100" height="40" as="geometry" />
        </mxCell>
        <mxCell id="R6YDXP-DM-g-7m_YTFPq-4" style="edgeStyle=orthogonalEdgeStyle;rounded=0;orthogonalLoop=1;jettySize=auto;html=1;labelBackgroundColor=none;strokeColor=#457B9D;fontColor=default;" edge="1" parent="1" source="R6YDXP-DM-g-7m_YTFPq-3" target="R6YDXP-DM-g-7m_YTFPq-5">
          <mxGeometry relative="1" as="geometry">
            <mxPoint x="250" y="150" as="targetPoint" />
          </mxGeometry>
        </mxCell>
        <mxCell id="R6YDXP-DM-g-7m_YTFPq-14" style="edgeStyle=orthogonalEdgeStyle;rounded=0;orthogonalLoop=1;jettySize=auto;html=1;labelBackgroundColor=none;strokeColor=#457B9D;fontColor=default;" edge="1" parent="1" source="R6YDXP-DM-g-7m_YTFPq-3" target="R6YDXP-DM-g-7m_YTFPq-11">
          <mxGeometry relative="1" as="geometry" />
        </mxCell>
        <mxCell id="R6YDXP-DM-g-7m_YTFPq-17" style="edgeStyle=orthogonalEdgeStyle;rounded=0;orthogonalLoop=1;jettySize=auto;html=1;entryX=0.5;entryY=0;entryDx=0;entryDy=0;labelBackgroundColor=none;strokeColor=#457B9D;fontColor=default;" edge="1" parent="1" source="R6YDXP-DM-g-7m_YTFPq-3" target="R6YDXP-DM-g-7m_YTFPq-10">
          <mxGeometry relative="1" as="geometry" />
        </mxCell>
        <mxCell id="R6YDXP-DM-g-7m_YTFPq-38" style="edgeStyle=orthogonalEdgeStyle;rounded=0;orthogonalLoop=1;jettySize=auto;html=1;exitX=0;exitY=1;exitDx=0;exitDy=0;entryX=0.5;entryY=0;entryDx=0;entryDy=0;labelBackgroundColor=none;strokeColor=#457B9D;fontColor=default;" edge="1" parent="1" source="R6YDXP-DM-g-7m_YTFPq-3" target="R6YDXP-DM-g-7m_YTFPq-36">
          <mxGeometry relative="1" as="geometry" />
        </mxCell>
        <mxCell id="R6YDXP-DM-g-7m_YTFPq-39" style="edgeStyle=orthogonalEdgeStyle;rounded=0;orthogonalLoop=1;jettySize=auto;html=1;exitX=1;exitY=1;exitDx=0;exitDy=0;entryX=0.5;entryY=0;entryDx=0;entryDy=0;labelBackgroundColor=none;strokeColor=#457B9D;fontColor=default;" edge="1" parent="1" source="R6YDXP-DM-g-7m_YTFPq-3" target="R6YDXP-DM-g-7m_YTFPq-37">
          <mxGeometry relative="1" as="geometry" />
        </mxCell>
        <mxCell id="R6YDXP-DM-g-7m_YTFPq-3" value="index.js" style="rhombus;whiteSpace=wrap;html=1;labelBackgroundColor=none;fillColor=#A8DADC;strokeColor=#457B9D;fontColor=#1D3557;" vertex="1" parent="1">
          <mxGeometry x="535" y="110" width="80" height="80" as="geometry" />
        </mxCell>
        <mxCell id="R6YDXP-DM-g-7m_YTFPq-21" style="edgeStyle=orthogonalEdgeStyle;rounded=0;orthogonalLoop=1;jettySize=auto;html=1;exitX=0.5;exitY=1;exitDx=0;exitDy=0;entryX=0.5;entryY=0;entryDx=0;entryDy=0;labelBackgroundColor=none;strokeColor=#457B9D;fontColor=default;" edge="1" parent="1" source="R6YDXP-DM-g-7m_YTFPq-5" target="R6YDXP-DM-g-7m_YTFPq-19">
          <mxGeometry relative="1" as="geometry" />
        </mxCell>
        <mxCell id="R6YDXP-DM-g-7m_YTFPq-22" style="edgeStyle=orthogonalEdgeStyle;rounded=0;orthogonalLoop=1;jettySize=auto;html=1;exitX=0;exitY=0.5;exitDx=0;exitDy=0;entryX=0.5;entryY=0;entryDx=0;entryDy=0;labelBackgroundColor=none;strokeColor=#457B9D;fontColor=default;" edge="1" parent="1" source="R6YDXP-DM-g-7m_YTFPq-5" target="R6YDXP-DM-g-7m_YTFPq-18">
          <mxGeometry relative="1" as="geometry" />
        </mxCell>
        <mxCell id="R6YDXP-DM-g-7m_YTFPq-23" style="edgeStyle=orthogonalEdgeStyle;rounded=0;orthogonalLoop=1;jettySize=auto;html=1;exitX=1;exitY=1;exitDx=0;exitDy=0;entryX=0.5;entryY=0;entryDx=0;entryDy=0;labelBackgroundColor=none;strokeColor=#457B9D;fontColor=default;" edge="1" parent="1" source="R6YDXP-DM-g-7m_YTFPq-5" target="R6YDXP-DM-g-7m_YTFPq-20">
          <mxGeometry relative="1" as="geometry" />
        </mxCell>
        <mxCell id="R6YDXP-DM-g-7m_YTFPq-5" value="controllers" style="rhombus;whiteSpace=wrap;html=1;labelBackgroundColor=none;fillColor=#A8DADC;strokeColor=#457B9D;fontColor=#1D3557;" vertex="1" parent="1">
          <mxGeometry x="210" y="230" width="80" height="80" as="geometry" />
        </mxCell>
        <mxCell id="R6YDXP-DM-g-7m_YTFPq-27" style="edgeStyle=orthogonalEdgeStyle;rounded=0;orthogonalLoop=1;jettySize=auto;html=1;exitX=0;exitY=1;exitDx=0;exitDy=0;entryX=0.5;entryY=0;entryDx=0;entryDy=0;labelBackgroundColor=none;strokeColor=#457B9D;fontColor=default;" edge="1" parent="1" source="R6YDXP-DM-g-7m_YTFPq-10" target="R6YDXP-DM-g-7m_YTFPq-24">
          <mxGeometry relative="1" as="geometry" />
        </mxCell>
        <mxCell id="R6YDXP-DM-g-7m_YTFPq-28" style="edgeStyle=orthogonalEdgeStyle;rounded=0;orthogonalLoop=1;jettySize=auto;html=1;exitX=0.5;exitY=1;exitDx=0;exitDy=0;entryX=0.5;entryY=0;entryDx=0;entryDy=0;labelBackgroundColor=none;strokeColor=#457B9D;fontColor=default;" edge="1" parent="1" source="R6YDXP-DM-g-7m_YTFPq-10" target="R6YDXP-DM-g-7m_YTFPq-25">
          <mxGeometry relative="1" as="geometry" />
        </mxCell>
        <mxCell id="R6YDXP-DM-g-7m_YTFPq-29" style="edgeStyle=orthogonalEdgeStyle;rounded=0;orthogonalLoop=1;jettySize=auto;html=1;exitX=1;exitY=1;exitDx=0;exitDy=0;entryX=0.5;entryY=0;entryDx=0;entryDy=0;labelBackgroundColor=none;strokeColor=#457B9D;fontColor=default;" edge="1" parent="1" source="R6YDXP-DM-g-7m_YTFPq-10" target="R6YDXP-DM-g-7m_YTFPq-26">
          <mxGeometry relative="1" as="geometry" />
        </mxCell>
        <mxCell id="R6YDXP-DM-g-7m_YTFPq-10" value="models" style="rhombus;whiteSpace=wrap;html=1;labelBackgroundColor=none;fillColor=#A8DADC;strokeColor=#457B9D;fontColor=#1D3557;" vertex="1" parent="1">
          <mxGeometry x="535" y="390" width="80" height="80" as="geometry" />
        </mxCell>
        <mxCell id="R6YDXP-DM-g-7m_YTFPq-33" style="edgeStyle=orthogonalEdgeStyle;rounded=0;orthogonalLoop=1;jettySize=auto;html=1;exitX=0;exitY=1;exitDx=0;exitDy=0;entryX=0.5;entryY=0;entryDx=0;entryDy=0;labelBackgroundColor=none;strokeColor=#457B9D;fontColor=default;" edge="1" parent="1" source="R6YDXP-DM-g-7m_YTFPq-11" target="R6YDXP-DM-g-7m_YTFPq-30">
          <mxGeometry relative="1" as="geometry" />
        </mxCell>
        <mxCell id="R6YDXP-DM-g-7m_YTFPq-34" style="edgeStyle=orthogonalEdgeStyle;rounded=0;orthogonalLoop=1;jettySize=auto;html=1;exitX=0.5;exitY=1;exitDx=0;exitDy=0;entryX=0.5;entryY=0;entryDx=0;entryDy=0;labelBackgroundColor=none;strokeColor=#457B9D;fontColor=default;" edge="1" parent="1" source="R6YDXP-DM-g-7m_YTFPq-11" target="R6YDXP-DM-g-7m_YTFPq-31">
          <mxGeometry relative="1" as="geometry" />
        </mxCell>
        <mxCell id="R6YDXP-DM-g-7m_YTFPq-35" style="edgeStyle=orthogonalEdgeStyle;rounded=0;orthogonalLoop=1;jettySize=auto;html=1;exitX=1;exitY=1;exitDx=0;exitDy=0;entryX=0.5;entryY=0;entryDx=0;entryDy=0;labelBackgroundColor=none;strokeColor=#457B9D;fontColor=default;" edge="1" parent="1" source="R6YDXP-DM-g-7m_YTFPq-11" target="R6YDXP-DM-g-7m_YTFPq-32">
          <mxGeometry relative="1" as="geometry" />
        </mxCell>
        <mxCell id="R6YDXP-DM-g-7m_YTFPq-11" value="routes" style="rhombus;whiteSpace=wrap;html=1;labelBackgroundColor=none;fillColor=#A8DADC;strokeColor=#457B9D;fontColor=#1D3557;" vertex="1" parent="1">
          <mxGeometry x="870" y="230" width="80" height="80" as="geometry" />
        </mxCell>
        <mxCell id="R6YDXP-DM-g-7m_YTFPq-18" value="book.js" style="rounded=0;whiteSpace=wrap;html=1;labelBackgroundColor=none;fillColor=#A8DADC;strokeColor=#457B9D;fontColor=#1D3557;" vertex="1" parent="1">
          <mxGeometry x="80" y="360" width="80" height="40" as="geometry" />
        </mxCell>
        <mxCell id="R6YDXP-DM-g-7m_YTFPq-19" value="rental.js" style="rounded=0;whiteSpace=wrap;html=1;labelBackgroundColor=none;fillColor=#A8DADC;strokeColor=#457B9D;fontColor=#1D3557;" vertex="1" parent="1">
          <mxGeometry x="170" y="360" width="80" height="40" as="geometry" />
        </mxCell>
        <mxCell id="R6YDXP-DM-g-7m_YTFPq-20" value="student.js" style="rounded=0;whiteSpace=wrap;html=1;labelBackgroundColor=none;fillColor=#A8DADC;strokeColor=#457B9D;fontColor=#1D3557;" vertex="1" parent="1">
          <mxGeometry x="260" y="360" width="80" height="40" as="geometry" />
        </mxCell>
        <mxCell id="R6YDXP-DM-g-7m_YTFPq-24" value="book.js" style="rounded=0;whiteSpace=wrap;html=1;labelBackgroundColor=none;fillColor=#A8DADC;strokeColor=#457B9D;fontColor=#1D3557;" vertex="1" parent="1">
          <mxGeometry x="445" y="520" width="80" height="40" as="geometry" />
        </mxCell>
        <mxCell id="R6YDXP-DM-g-7m_YTFPq-25" value="rental.js" style="rounded=0;whiteSpace=wrap;html=1;labelBackgroundColor=none;fillColor=#A8DADC;strokeColor=#457B9D;fontColor=#1D3557;" vertex="1" parent="1">
          <mxGeometry x="535" y="520" width="80" height="40" as="geometry" />
        </mxCell>
        <mxCell id="R6YDXP-DM-g-7m_YTFPq-26" value="student.js" style="rounded=0;whiteSpace=wrap;html=1;labelBackgroundColor=none;fillColor=#A8DADC;strokeColor=#457B9D;fontColor=#1D3557;" vertex="1" parent="1">
          <mxGeometry x="625" y="520" width="80" height="40" as="geometry" />
        </mxCell>
        <mxCell id="R6YDXP-DM-g-7m_YTFPq-30" value="book.js" style="rounded=0;whiteSpace=wrap;html=1;labelBackgroundColor=none;fillColor=#A8DADC;strokeColor=#457B9D;fontColor=#1D3557;" vertex="1" parent="1">
          <mxGeometry x="800" y="360" width="80" height="40" as="geometry" />
        </mxCell>
        <mxCell id="R6YDXP-DM-g-7m_YTFPq-31" value="rental.js" style="rounded=0;whiteSpace=wrap;html=1;labelBackgroundColor=none;fillColor=#A8DADC;strokeColor=#457B9D;fontColor=#1D3557;" vertex="1" parent="1">
          <mxGeometry x="890" y="360" width="80" height="40" as="geometry" />
        </mxCell>
        <mxCell id="R6YDXP-DM-g-7m_YTFPq-32" value="student.js" style="rounded=0;whiteSpace=wrap;html=1;labelBackgroundColor=none;fillColor=#A8DADC;strokeColor=#457B9D;fontColor=#1D3557;" vertex="1" parent="1">
          <mxGeometry x="980" y="360" width="80" height="40" as="geometry" />
        </mxCell>
        <mxCell id="R6YDXP-DM-g-7m_YTFPq-36" value="package-lock.json" style="shape=document;whiteSpace=wrap;html=1;boundedLbl=1;labelBackgroundColor=none;fillColor=#A8DADC;strokeColor=#457B9D;fontColor=#1D3557;" vertex="1" parent="1">
          <mxGeometry x="400" y="210" width="80" height="50" as="geometry" />
        </mxCell>
        <mxCell id="R6YDXP-DM-g-7m_YTFPq-37" value="package.json" style="shape=document;whiteSpace=wrap;html=1;boundedLbl=1;labelBackgroundColor=none;fillColor=#A8DADC;strokeColor=#457B9D;fontColor=#1D3557;" vertex="1" parent="1">
          <mxGeometry x="680" y="210" width="80" height="50" as="geometry" />
        </mxCell>
      </root>
    </mxGraphModel>
  </diagram>
</mxfile>
